<svg xmlns="http://www.w3.org/2000/svg" xmlns:xlink="http://www.w3.org/1999/xlink" viewBox="0 0 64 64" version="1.1">
  <g id="surface1">
    <path style=" fill:#CDA1A7;" d="M 6 61.078125 L 3.171875 58.25 C 2.417969 57.5 1.996094 56.480469 1.996094 55.421875 C 1.996094 54.359375 2.417969 53.339844 3.171875 52.589844 L 35.28125 22.488281 L 41.769531 29 L 11.660156 61.078125 C 10.910156 61.832031 9.890625 62.253906 8.828125 62.253906 C 7.769531 62.253906 6.75 61.832031 6 61.078125 Z "></path>
    <path style=" fill:#CED8ED;" d="M 57.621094 23.609375 C 56.449219 24.78125 54.550781 24.78125 53.378906 23.609375 C 52.210938 22.4375 52.210938 20.542969 53.378906 19.371094 C 53.769531 18.980469 53.769531 18.351563 53.378906 17.960938 L 39.941406 4.511719 C 37.6875 2.25 34.628906 0.980469 31.441406 0.980469 C 28.25 0.980469 25.191406 2.25 22.941406 4.511719 L 33.109375 14.660156 C 34.125 15.75 34.710938 17.171875 34.761719 18.660156 L 35.28125 22.519531 L 41.769531 29 L 42.890625 28.460938 C 44.511719 27.683594 46.449219 28.015625 47.71875 29.289063 C 48.890625 30.460938 48.890625 32.359375 47.71875 33.53125 C 47.332031 33.921875 47.332031 34.550781 47.71875 34.941406 L 49.839844 37 C 50.589844 37.75 51.609375 38.171875 52.671875 38.171875 C 53.730469 38.171875 54.75 37.75 55.5 37 L 61.160156 31.339844 C 61.910156 30.589844 62.332031 29.570313 62.332031 28.511719 C 62.332031 27.449219 61.910156 26.429688 61.160156 25.679688 L 59 23.609375 C 58.613281 23.242188 58.007813 23.242188 57.621094 23.609375 Z "></path>
    <path style=" fill:#DAE2EF;" d="M 39.449219 9.648438 L 47.890625 18.070313 C 48.625 18.804688 49.625 19.207031 50.660156 19.183594 C 51.699219 19.160156 52.679688 18.714844 53.378906 17.949219 L 39.449219 4 C 39.449219 4 32.449219 -2.289063 23.449219 4 L 26.148438 7 C 26.148438 7 33.269531 2 39.449219 9.648438 Z "></path>
    <path style=" fill:#F5C872;" d="M 30.75 26.738281 L 35.28125 22.480469 L 41.769531 28.96875 L 37.519531 33.511719 Z "></path>
    <path style=" fill:#B5C4E0;" d="M 47.460938 33.878906 L 58.5 23.269531 L 61.53125 26.300781 L 62.328125 30.359375 L 53.878906 38.210938 L 50.351563 37.488281 Z "></path>
    <path style=" fill:#8D6C9F;" d="M 16.609375 46.230469 C 16.214844 45.890625 15.621094 45.914063 15.253906 46.28125 C 14.882813 46.652344 14.859375 47.242188 15.199219 47.640625 L 16.609375 49.050781 C 17.007813 49.332031 17.554688 49.285156 17.898438 48.9375 C 18.242188 48.59375 18.285156 48.046875 18 47.648438 Z "></path>
    <path style=" fill:#8D6C9F;" d="M 20.140625 42.699219 C 19.742188 42.359375 19.152344 42.382813 18.78125 42.753906 C 18.414063 43.121094 18.390625 43.714844 18.730469 44.109375 L 20.148438 45.519531 C 20.546875 45.859375 21.136719 45.835938 21.507813 45.46875 C 21.875 45.097656 21.898438 44.507813 21.558594 44.109375 Z "></path>
    <path style=" fill:#8D6C9F;" d="M 23.679688 39.160156 C 23.285156 38.820313 22.691406 38.84375 22.324219 39.210938 C 21.953125 39.582031 21.929688 40.171875 22.269531 40.570313 L 23.679688 42 C 24.078125 42.339844 24.667969 42.316406 25.039063 41.949219 C 25.40625 41.578125 25.429688 40.988281 25.089844 40.589844 Z "></path>
    <path style=" fill:#8D6C9F;" d="M 27.210938 35.628906 C 26.816406 35.351563 26.28125 35.394531 25.9375 35.730469 C 25.589844 36.066406 25.535156 36.597656 25.800781 37 L 27.210938 38.410156 C 27.597656 38.800781 28.234375 38.804688 28.625 38.414063 C 29.015625 38.027344 29.019531 37.390625 28.628906 37 Z "></path>
    <path style=" fill:#8D6C9F;" d="M 9.539063 53.300781 C 9.144531 52.960938 8.550781 52.984375 8.183594 53.351563 C 7.8125 53.722656 7.789063 54.3125 8.128906 54.710938 L 9.539063 56.128906 C 9.9375 56.46875 10.527344 56.445313 10.898438 56.078125 C 11.265625 55.707031 11.289063 55.117188 10.949219 54.71875 Z "></path>
    <path style=" fill:#8D6C9F;" d="M 13.070313 49.769531 C 12.671875 49.429688 12.082031 49.453125 11.710938 49.824219 C 11.34375 50.191406 11.320313 50.785156 11.660156 51.179688 L 13.070313 52.589844 C 13.464844 52.929688 14.058594 52.90625 14.425781 52.539063 C 14.796875 52.167969 14.820313 51.578125 14.480469 51.179688 Z "></path>
    <path style=" fill:#8D6C9F;" d="M 32.160156 33.511719 L 30.75 32.101563 C 30.351563 31.761719 29.761719 31.78125 29.390625 32.152344 C 29.023438 32.523438 29 33.113281 29.339844 33.511719 L 30.75 34.921875 C 30.996094 35.207031 31.378906 35.328125 31.742188 35.242188 C 32.109375 35.152344 32.394531 34.867188 32.480469 34.503906 C 32.570313 34.136719 32.445313 33.753906 32.160156 33.511719 Z "></path>
    <path style=" fill:#8D6C9F;" d="M 61.859375 25 L 59.738281 22.898438 C 59.363281 22.523438 58.855469 22.3125 58.324219 22.3125 C 57.792969 22.3125 57.285156 22.523438 56.910156 22.898438 C 56.128906 23.679688 54.863281 23.679688 54.078125 22.898438 C 53.296875 22.117188 53.296875 20.851563 54.078125 20.070313 C 54.457031 19.695313 54.667969 19.1875 54.667969 18.65625 C 54.667969 18.125 54.457031 17.613281 54.078125 17.238281 L 40.648438 3.808594 C 35.574219 -1.261719 27.347656 -1.261719 22.269531 3.808594 C 21.882813 4.199219 21.882813 4.828125 22.269531 5.21875 L 32.398438 15.359375 C 33.253906 16.289063 33.738281 17.5 33.769531 18.761719 L 34.21875 22.109375 L 2.460938 51.890625 C 0.507813 53.84375 0.507813 57.007813 2.460938 58.960938 L 5.289063 61.789063 C 6.226563 62.726563 7.496094 63.25 8.820313 63.25 C 10.160156 63.253906 11.445313 62.722656 12.390625 61.769531 L 42.390625 29.769531 L 43.390625 29.308594 C 44.621094 28.773438 46.054688 29.046875 47 30 C 47.375 30.375 47.585938 30.882813 47.585938 31.414063 C 47.585938 31.945313 47.375 32.453125 47 32.828125 C 46.625 33.207031 46.414063 33.714844 46.414063 34.246094 C 46.414063 34.777344 46.625 35.285156 47 35.660156 L 49.121094 37.78125 C 51.074219 39.730469 54.238281 39.730469 56.191406 37.78125 L 61.851563 32.121094 C 62.804688 31.183594 63.34375 29.898438 63.34375 28.5625 C 63.347656 27.222656 62.8125 25.941406 61.859375 25 Z M 11 60.378906 C 9.828125 61.550781 7.929688 61.550781 6.761719 60.378906 L 3.878906 57.550781 C 2.722656 56.382813 2.722656 54.5 3.878906 53.328125 L 30.878906 28 L 36.269531 33.390625 Z M 37.640625 31.910156 L 32.339844 26.609375 L 35.261719 23.871094 L 40.378906 29 Z M 48.421875 28.550781 C 46.839844 26.972656 44.429688 26.570313 42.421875 27.550781 L 41.929688 27.78125 L 36.230469 22 L 35.761719 18.511719 C 35.664063 16.824219 34.976563 15.230469 33.820313 14 L 27.269531 7.398438 C 30.042969 5.300781 33.933594 5.558594 36.410156 8 L 40.679688 12.269531 C 41.078125 12.609375 41.667969 12.585938 42.039063 12.21875 C 42.40625 11.847656 42.429688 11.257813 42.089844 10.859375 L 37.820313 6.640625 C 34.578125 3.386719 29.40625 3.097656 25.820313 5.96875 L 24.421875 4.550781 C 28.789063 0.90625 35.214844 1.199219 39.238281 5.21875 L 52.671875 18.660156 C 51.667969 19.671875 51.277344 21.144531 51.652344 22.519531 C 52.023438 23.898438 53.101563 24.972656 54.480469 25.339844 L 49.480469 30.339844 C 49.289063 29.660156 48.925781 29.042969 48.421875 28.550781 Z M 60.421875 30.671875 L 54.761719 36.328125 C 53.574219 37.460938 51.707031 37.460938 50.519531 36.328125 L 48.398438 34.210938 L 58.300781 24.308594 L 60.421875 26.429688 C 60.988281 26.988281 61.3125 27.75 61.316406 28.546875 C 61.324219 29.347656 61.011719 30.113281 60.449219 30.679688 Z "></path>
    <path style=" fill:#8D6C9F;" d="M 44.921875 13.738281 C 44.523438 13.398438 43.933594 13.421875 43.5625 13.792969 C 43.191406 14.160156 43.171875 14.753906 43.511719 15.148438 L 46.308594 17.949219 C 46.707031 18.289063 47.296875 18.265625 47.667969 17.898438 C 48.035156 17.527344 48.058594 16.9375 47.71875 16.539063 Z "></path>
  </g>
</svg>