<svg xmlns="http://www.w3.org/2000/svg" xmlns:xlink="http://www.w3.org/1999/xlink" viewBox="0 0 64 64" version="1.1">
  <g id="surface1">
    <path style=" fill:#FAEFDE;" d="M 8 59 L 55 59 C 57.210938 59 59 57.210938 59 55 L 59 8 C 59 6.34375 57.65625 5 56 5 L 14 5 C 12.34375 5 11 6.34375 11 8 L 11 56 Z "></path>
    <path style=" fill:#FFF7F0;" d="M 13 5 L 57 5 C 58.105469 5 59 5.894531 59 7 C 59 8.105469 58.105469 9 57 9 L 13 9 C 11.894531 9 11 8.105469 11 7 C 11 5.894531 11.894531 5 13 5 Z "></path>
    <path style=" fill:#EB9697;" d="M 29 36.359375 L 25 34.359375 L 19 36.359375 L 19 27.359375 L 29 27.359375 Z "></path>
    <path style=" fill:#F9E3AE;" d="M 18.171875 19.71875 L 17 18.089844 L 18.910156 17.460938 C 19.34375 17.316406 19.644531 16.917969 19.660156 16.460938 L 19.660156 14.460938 L 21.578125 15.070313 C 22.023438 15.210938 22.511719 15.054688 22.789063 14.679688 L 24 13 L 25.191406 14.621094 C 25.46875 14.992188 25.953125 15.148438 26.398438 15.011719 L 28.320313 14.398438 L 28.320313 16.398438 C 28.335938 16.859375 28.632813 17.257813 29.070313 17.398438 L 30.980469 18.03125 L 29.808594 19.671875 C 29.53125 20.050781 29.53125 20.566406 29.808594 20.949219 L 31 22.640625 L 29.089844 23.269531 C 28.65625 23.414063 28.355469 23.8125 28.339844 24.269531 L 28.339844 26.269531 L 26.421875 25.660156 C 25.976563 25.519531 25.488281 25.675781 25.210938 26.050781 L 24 27.71875 L 22.808594 26.101563 C 22.53125 25.726563 22.046875 25.570313 21.601563 25.710938 L 19.679688 26.320313 L 19.679688 24.320313 C 19.664063 23.863281 19.367188 23.460938 18.929688 23.320313 L 17 22.640625 L 18.171875 21 C 18.445313 20.617188 18.445313 20.101563 18.171875 19.71875 Z "></path>
    <path style=" fill:#F6D397;" d="M 29.621094 20.359375 L 18.378906 20.359375 C 18.378906 20.589844 18.304688 20.8125 18.171875 21 L 17 22.640625 L 18.910156 23.269531 C 19.34375 23.414063 19.644531 23.8125 19.660156 24.269531 L 19.660156 26.269531 L 21.578125 25.660156 C 22.023438 25.519531 22.511719 25.675781 22.789063 26.050781 L 24 27.71875 L 25.191406 26.101563 C 25.46875 25.726563 25.953125 25.570313 26.398438 25.710938 L 28.320313 26.320313 L 28.320313 24.320313 C 28.335938 23.863281 28.632813 23.460938 29.070313 23.320313 L 31 22.640625 L 29.828125 21 C 29.695313 20.8125 29.621094 20.589844 29.621094 20.359375 Z "></path>
    <path style=" fill:#EFD8BE;" d="M 6 53 L 53 53 L 53 59 L 6 59 Z "></path>
    <path style=" fill:#8D6C9F;" d="M 54 44 C 53.449219 44 53 44.449219 53 45 L 53 47 C 53 47.550781 53.449219 48 54 48 C 54.550781 48 55 47.550781 55 47 L 55 45 C 55 44.449219 54.550781 44 54 44 Z "></path>
    <path style=" fill:#EB9697;" d="M 52.460938 41.109375 C 51.972656 40.851563 51.367188 41.042969 51.109375 41.53125 C 50.453125 42.539063 49.601563 43.402344 48.601563 44.070313 L 48.480469 44.070313 C 48.785156 43.417969 48.960938 42.71875 49 42 C 49.09375 40.871094 48.546875 39.78125 47.578125 39.191406 C 46.902344 38.867188 46.101563 38.964844 45.519531 39.441406 C 45.101563 39.78125 44.160156 40.820313 44.699219 43.128906 C 44.882813 43.8125 45.253906 44.429688 45.769531 44.910156 C 45.347656 45.59375 44.785156 46.183594 44.121094 46.640625 C 44.03125 46.699219 43.933594 46.734375 43.828125 46.75 C 43.726563 46.726563 43.632813 46.683594 43.550781 46.621094 C 43.3125 46.464844 43.097656 46.285156 42.898438 46.078125 C 43.503906 44.429688 43.839844 42.695313 43.898438 40.941406 C 44 38.710938 43.519531 37 42.601563 36 C 41.351563 34.691406 40.308594 34.941406 39.808594 35.199219 C 38.070313 36.109375 38.070313 39.421875 38.660156 42.199219 C 39.027344 43.710938 39.683594 45.132813 40.601563 46.390625 C 40.152344 47.386719 39.519531 48.292969 38.738281 49.058594 C 38.335938 49.4375 38.316406 50.070313 38.695313 50.476563 C 39.074219 50.878906 39.707031 50.898438 40.109375 50.519531 C 40.867188 49.78125 41.503906 48.933594 42 48 C 42.136719 48.109375 42.28125 48.214844 42.429688 48.308594 C 42.78125 48.554688 43.191406 48.710938 43.621094 48.761719 C 44.125 48.789063 44.625 48.667969 45.058594 48.410156 C 46.027344 47.789063 46.847656 46.96875 47.46875 46 C 48.089844 46.238281 48.777344 46.238281 49.398438 46 C 50.828125 45.148438 52.027344 43.960938 52.890625 42.539063 C 53.039063 42.296875 53.078125 42 52.996094 41.730469 C 52.914063 41.457031 52.71875 41.230469 52.460938 41.109375 Z M 41.929688 40.851563 C 41.886719 41.914063 41.726563 42.972656 41.449219 44 C 41.074219 43.308594 40.789063 42.566406 40.609375 41.800781 C 40.011719 38.910156 40.429688 37.351563 40.699219 37.019531 C 40.871094 37.113281 41.019531 37.234375 41.148438 37.378906 C 41.800781 38.414063 42.074219 39.636719 41.929688 40.851563 Z M 46.78125 43 C 46.722656 42.898438 46.675781 42.792969 46.648438 42.679688 C 46.453125 42.132813 46.476563 41.53125 46.710938 41 C 46.769531 41 47 41.289063 47 42 C 46.984375 42.34375 46.910156 42.683594 46.78125 43 Z "></path>
    <path style=" fill:#8D6C9F;" d="M 57 4 L 13 4 C 11.34375 4 10 5.34375 10 7 L 10 52 L 6 52 C 4.894531 52 4 52.894531 4 54 L 4 56 C 4 58.210938 5.789063 60 8 60 L 56 60 C 58.210938 60 60 58.210938 60 56 L 60 7 C 60 5.34375 58.65625 4 57 4 Z M 8 58 C 6.894531 58 6 57.105469 6 56 L 6 54 L 52 54 L 52 56 C 52.007813 56.703125 52.199219 57.394531 52.558594 58 Z M 58 56 C 58 57.105469 57.105469 58 56 58 C 54.894531 58 54 57.105469 54 56 L 54 54 C 54 52.894531 53.105469 52 52 52 L 12 52 L 12 7 C 12 6.449219 12.449219 6 13 6 L 57 6 C 57.550781 6 58 6.449219 58 7 Z "></path>
    <path style=" fill:#8D6C9F;" d="M 16 44 C 15.449219 44 15 44.449219 15 45 L 15 47 C 15 47.550781 15.449219 48 16 48 C 16.550781 48 17 47.550781 17 47 L 17 45 C 17 44.449219 16.550781 44 16 44 Z "></path>
    <path style=" fill:#8D6C9F;" d="M 21 44 C 20.449219 44 20 44.449219 20 45 L 20 47 C 20 47.550781 20.449219 48 21 48 C 21.550781 48 22 47.550781 22 47 L 22 45 C 22 44.449219 21.550781 44 21 44 Z "></path>
    <path style=" fill:#8D6C9F;" d="M 26 44 C 25.449219 44 25 44.449219 25 45 L 25 47 C 25 47.550781 25.449219 48 26 48 C 26.550781 48 27 47.550781 27 47 L 27 45 C 27 44.449219 26.550781 44 26 44 Z "></path>
    <path style=" fill:#8D6C9F;" d="M 31 44 C 30.449219 44 30 44.449219 30 45 L 30 47 C 30 47.550781 30.449219 48 31 48 C 31.550781 48 32 47.550781 32 47 L 32 45 C 32 44.449219 31.550781 44 31 44 Z "></path>
    <path style=" fill:#8D6C9F;" d="M 36 44 C 35.449219 44 35 44.449219 35 45 L 35 47 C 35 47.550781 35.449219 48 36 48 C 36.550781 48 37 47.550781 37 47 L 37 45 C 37 44.449219 36.550781 44 36 44 Z "></path>
    <path style=" fill:#8D6C9F;" d="M 46 16 L 52 16 C 52.550781 16 53 15.550781 53 15 C 53 14.449219 52.550781 14 52 14 L 46 14 C 45.449219 14 45 14.449219 45 15 C 45 15.550781 45.449219 16 46 16 Z "></path>
    <path style=" fill:#8D6C9F;" d="M 38 16 L 42 16 C 42.550781 16 43 15.550781 43 15 C 43 14.449219 42.550781 14 42 14 L 38 14 C 37.449219 14 37 14.449219 37 15 C 37 15.550781 37.449219 16 38 16 Z "></path>
    <path style=" fill:#8D6C9F;" d="M 38 20 L 48 20 C 48.550781 20 49 19.550781 49 19 C 49 18.449219 48.550781 18 48 18 L 38 18 C 37.449219 18 37 18.449219 37 19 C 37 19.550781 37.449219 20 38 20 Z "></path>
    <path style=" fill:#8D6C9F;" d="M 48 30 C 47.449219 30 47 30.449219 47 31 C 47 31.550781 47.449219 32 48 32 L 50 32 C 50.550781 32 51 31.550781 51 31 C 51 30.449219 50.550781 30 50 30 Z "></path>
    <path style=" fill:#8D6C9F;" d="M 45 31 C 45 30.449219 44.550781 30 44 30 L 38 30 C 37.449219 30 37 30.449219 37 31 C 37 31.550781 37.449219 32 38 32 L 44 32 C 44.550781 32 45 31.550781 45 31 Z "></path>
    <path style=" fill:#8D6C9F;" d="M 38 28 L 52 28 C 52.550781 28 53 27.550781 53 27 C 53 26.449219 52.550781 26 52 26 L 38 26 C 37.449219 26 37 26.449219 37 27 C 37 27.550781 37.449219 28 38 28 Z "></path>
    <path style=" fill:#8D6C9F;" d="M 33 17.558594 C 32.902344 17.257813 32.664063 17.019531 32.359375 16.921875 L 30 16.128906 L 30 13.621094 C 30.015625 13.292969 29.871094 12.976563 29.609375 12.777344 C 29.347656 12.574219 29.003906 12.515625 28.691406 12.621094 L 26.328125 13.378906 L 24.859375 11.378906 C 24.671875 11.121094 24.371094 10.964844 24.050781 10.964844 C 23.730469 10.964844 23.429688 11.121094 23.238281 11.378906 L 21.769531 13.378906 L 19.410156 12.621094 C 19.097656 12.515625 18.753906 12.574219 18.492188 12.777344 C 18.230469 12.976563 18.082031 13.292969 18.101563 13.621094 L 18.101563 16.128906 L 15.75 16.921875 C 15.445313 17.019531 15.207031 17.257813 15.105469 17.5625 C 15.007813 17.867188 15.0625 18.199219 15.25 18.460938 L 16.699219 20.460938 L 15.25 22.460938 C 15.0625 22.71875 15.007813 23.054688 15.105469 23.359375 C 15.207031 23.664063 15.445313 23.902344 15.75 24 L 18.070313 24.78125 L 18.070313 37 C 18.070313 37.332031 18.234375 37.640625 18.507813 37.828125 C 18.78125 38.015625 19.132813 38.054688 19.441406 37.929688 L 24 36.078125 L 28.628906 37.929688 C 28.9375 38.054688 29.289063 38.015625 29.5625 37.828125 C 29.835938 37.640625 30 37.332031 30 37 L 30 24.859375 L 32.320313 24.078125 C 32.625 23.980469 32.863281 23.742188 32.960938 23.4375 C 33.0625 23.132813 33.007813 22.800781 32.820313 22.539063 L 31.371094 20.539063 L 32.820313 18.539063 C 33.050781 18.269531 33.117188 17.894531 33 17.558594 Z M 24.371094 34.070313 C 24.132813 33.976563 23.867188 33.976563 23.628906 34.070313 L 20 35.519531 L 20 28.128906 L 21.71875 27.578125 L 23.191406 29.578125 C 23.378906 29.84375 23.679688 30 24.003906 30 C 24.328125 30 24.632813 29.84375 24.820313 29.578125 L 26.289063 27.578125 L 28.011719 28.128906 L 28.011719 35.519531 Z M 29.308594 21.070313 L 30.398438 22.601563 L 28.648438 23.191406 C 28.238281 23.324219 27.960938 23.707031 27.960938 24.140625 L 27.960938 26 L 26.21875 25.441406 C 25.804688 25.304688 25.351563 25.457031 25.101563 25.808594 L 24 27.289063 L 22.921875 25.800781 C 22.730469 25.542969 22.429688 25.390625 22.109375 25.390625 C 22.007813 25.375 21.902344 25.375 21.800781 25.390625 L 20.050781 26 L 20.050781 24.140625 C 20.050781 23.707031 19.769531 23.324219 19.359375 23.191406 L 17.601563 22.601563 L 18.679688 21.078125 C 18.925781 20.734375 18.925781 20.265625 18.679688 19.921875 L 17.601563 18.398438 L 19.351563 17.808594 C 19.761719 17.675781 20.039063 17.292969 20.039063 16.859375 L 20.039063 15 L 21.78125 15.558594 C 22.195313 15.695313 22.648438 15.542969 22.898438 15.191406 L 24 13.710938 L 25.078125 15.199219 C 25.332031 15.554688 25.785156 15.703125 26.199219 15.570313 L 27.949219 15 L 27.949219 16.859375 C 27.949219 17.292969 28.230469 17.675781 28.640625 17.808594 L 30.390625 18.398438 L 29.308594 19.921875 C 29.066406 20.269531 29.070313 20.734375 29.320313 21.078125 Z "></path>
  </g>
</svg>