<svg xmlns="http://www.w3.org/2000/svg" xmlns:xlink="http://www.w3.org/1999/xlink" viewBox="0 0 64 64" version="1.1">
  <g id="surface1">
    <path style=" fill:#BBDEF9;" d="M 13.238281 0.941406 L 42 0.941406 C 43.65625 0.941406 45 2.28125 45 3.941406 L 45 51.941406 C 45 53.597656 43.65625 54.941406 42 54.941406 L 4 54.941406 C 2.34375 54.941406 1 53.597656 1 51.941406 L 1 13.179688 C 1 12.382813 1.316406 11.621094 1.878906 11.058594 L 11.121094 1.820313 C 11.683594 1.257813 12.445313 0.941406 13.238281 0.941406 Z "></path>
    <path style=" fill:#CCE7FC;" d="M 1 55 L 0.851563 45.539063 L 44.339844 2.058594 L 45 25 L 15 55 Z "></path>
    <path style=" fill:#CCE7FC;" d="M 0.851563 35.148438 L 35.058594 0.941406 L 40.808594 1.191406 L 1 41 Z "></path>
    <path style=" fill:#CCE7FC;" d="M 0.851563 29.148438 L 29 1 L 32 1 L 0.851563 32.148438 Z "></path>
    <path style=" fill:#FFFFFF;" d="M 35.5 7 L 36.738281 9.261719 L 39 10.5 L 36.738281 11.738281 L 35.5 14 L 34.261719 11.738281 L 32 10.5 L 34.261719 9.261719 Z "></path>
    <path style=" fill:#FFFFFF;" d="M 20.421875 6 L 21.269531 7.558594 L 22.839844 8.421875 L 21.269531 9.269531 L 20.421875 10.839844 L 19.558594 9.269531 L 18 8.421875 L 19.558594 7.558594 Z "></path>
    <path style=" fill:#FFFFFF;" d="M 5.648438 43 L 6.230469 44.058594 L 7.300781 44.648438 L 6.230469 45.230469 L 5.648438 46.300781 L 5.070313 45.230469 L 4 44.648438 L 5.070313 44.058594 Z "></path>
    <path style=" fill:#FFEFB8;" d="M 13 1 L 13 13 L 1 13 Z "></path>
    <path style=" fill:#FFEFB8;" d="M 9 39 L 13 39 L 13 43 L 9 43 Z "></path>
    <path style=" fill:#FFEFB8;" d="M 9 29 L 13 29 L 13 33 L 9 33 Z "></path>
    <path style=" fill:#FFEFB8;" d="M 9 19 L 13 19 L 13 23 L 9 23 Z "></path>
    <path style=" fill:#CDA1A7;" d="M 17 33 L 17 61 C 17 62.105469 17.894531 63 19 63 L 61 63 C 62.105469 63 63 62.105469 63 61 L 63 33 Z "></path>
    <path style=" fill:#C4939C;" d="M 63 63 L 17 63 L 17 59 L 63 59 Z "></path>
    <path style=" fill:#CDA1A7;" d="M 17 31 L 17 37 C 17 38.761719 18.152344 40.320313 19.839844 40.828125 L 38.839844 46.609375 C 39.597656 46.839844 40.410156 46.839844 41.171875 46.609375 L 60.171875 40.828125 C 61.851563 40.316406 63.003906 38.761719 63 37 L 63 31 C 63 29.894531 62.105469 29 61 29 L 19 29 C 17.894531 29 17 29.894531 17 31 Z "></path>
    <path style=" fill:#DBB2BA;" d="M 19 29 L 61 29 C 62.105469 29 63 29.894531 63 31 C 63 32.65625 61.65625 34 60 34 L 20 34 C 18.34375 34 17 32.65625 17 31 C 17 29.894531 17.894531 29 19 29 Z "></path>
    <path style=" fill:#F9E3AE;" d="M 37 43 L 43 43 L 43 47 C 43 48.65625 41.65625 50 40 50 C 38.34375 50 37 48.65625 37 47 Z "></path>
    <path style=" fill:#8D6C9F;" d="M 33 20 L 37 20 C 37.550781 20 38 19.550781 38 19 C 38 18.449219 37.550781 18 37 18 L 33 18 C 32.449219 18 32 18.449219 32 19 C 32 19.550781 32.449219 20 33 20 Z "></path>
    <path style=" fill:#8D6C9F;" d="M 17 20 L 29 20 C 29.550781 20 30 19.550781 30 19 C 30 18.449219 29.550781 18 29 18 L 17 18 C 16.449219 18 16 18.449219 16 19 C 16 19.550781 16.449219 20 17 20 Z "></path>
    <path style=" fill:#8D6C9F;" d="M 17 24 L 31 24 C 31.550781 24 32 23.550781 32 23 C 32 22.449219 31.550781 22 31 22 L 17 22 C 16.449219 22 16 22.449219 16 23 C 16 23.550781 16.449219 24 17 24 Z "></path>
    <path style=" fill:#8D6C9F;" d="M 12 18 L 10 18 C 8.894531 18 8 18.894531 8 20 L 8 22 C 8 23.105469 8.894531 24 10 24 L 12 24 C 13.105469 24 14 23.105469 14 22 L 14 20 C 14 18.894531 13.105469 18 12 18 Z M 10 22 L 10 20 L 12 20 L 12 22 Z "></path>
    <path style=" fill:#8D6C9F;" d="M 12 28 L 10 28 C 8.894531 28 8 28.894531 8 30 L 8 32 C 8 33.105469 8.894531 34 10 34 L 12 34 C 13.105469 34 14 33.105469 14 32 L 14 30 C 14 28.894531 13.105469 28 12 28 Z M 10 32 L 10 30 L 12 30 L 12 32 Z "></path>
    <path style=" fill:#8D6C9F;" d="M 12 38 L 10 38 C 8.894531 38 8 38.894531 8 40 L 8 42 C 8 43.105469 8.894531 44 10 44 L 12 44 C 13.105469 44 14 43.105469 14 42 L 14 40 C 14 38.894531 13.105469 38 12 38 Z M 10 42 L 10 40 L 12 40 L 12 42 Z "></path>
    <path style=" fill:#8D6C9F;" d="M 59 58 L 55 58 C 54.449219 58 54 58.449219 54 59 C 54 59.550781 54.449219 60 55 60 L 59 60 C 59.550781 60 60 59.550781 60 59 C 60 58.449219 59.550781 58 59 58 Z "></path>
    <path style=" fill:#8D6C9F;" d="M 61 28 L 48.539063 28 L 45.941406 24.101563 C 45.976563 24 45.996094 23.894531 46 23.789063 L 46 3 C 46 1.34375 44.65625 0 43 0 L 13.660156 0 C 12.332031 -0.00390625 11.058594 0.523438 10.121094 1.460938 L 1.460938 10.121094 C 0.523438 11.058594 -0.00390625 12.332031 0 13.660156 L 0 53 C 0 54.65625 1.34375 56 3 56 L 16 56 L 16 61 C 16 62.65625 17.34375 64 19 64 L 61 64 C 62.65625 64 64 62.65625 64 61 L 64 31 C 64 29.34375 62.65625 28 61 28 Z M 61 30 C 61.550781 30 62 30.449219 62 31 L 62 37 C 62 38.320313 61.132813 39.488281 59.871094 39.871094 L 44 44.738281 L 44 44 C 44 42.894531 43.105469 42 42 42 L 38 42 C 36.894531 42 36 42.894531 36 44 L 36 44.738281 L 20.128906 39.910156 C 18.851563 39.523438 17.984375 38.335938 18 37 L 18 31 C 18 30.449219 18.449219 30 19 30 Z M 42 44 L 42 47 C 42 48.105469 41.105469 49 40 49 C 38.894531 49 38 48.105469 38 47 L 38 44 Z M 33.871094 28 L 36.238281 24.449219 C 36.425781 24.171875 36.734375 24 37.070313 24 L 42.929688 24 C 43.265625 24 43.574219 24.171875 43.761719 24.449219 L 46.128906 28 Z M 11.539063 2.878906 C 11.679688 2.738281 11.835938 2.609375 12 2.5 L 12 11 C 12 11.550781 11.550781 12 11 12 L 2.5 12 C 2.609375 11.835938 2.738281 11.679688 2.878906 11.539063 Z M 3 54 C 2.449219 54 2 53.550781 2 53 L 2 14 L 11 14 C 12.65625 14 14 12.65625 14 11 L 14 2 L 43 2 C 43.550781 2 44 2.449219 44 3 L 44 22.21875 C 43.660156 22.082031 43.296875 22.007813 42.929688 22 L 37.070313 22 C 36.066406 22 35.125 22.503906 34.570313 23.339844 L 31.460938 28 L 19 28 C 17.34375 28 16 29.34375 16 31 L 16 54 Z M 61 62 L 19 62 C 18.449219 62 18 61.550781 18 61 L 18 60 L 51 60 C 51.550781 60 52 59.550781 52 59 C 52 58.449219 51.550781 58 51 58 L 18 58 L 18 41 C 18.464844 41.351563 18.984375 41.617188 19.539063 41.789063 L 36 46.789063 L 36 47 C 36 49.210938 37.789063 51 40 51 C 42.210938 51 44 49.210938 44 47 L 44 46.828125 L 60.460938 41.828125 C 61.019531 41.644531 61.539063 41.363281 62 41 L 62 61 C 62 61.550781 61.550781 62 61 62 Z "></path>
    <path style=" fill:#8D6C9F;" d="M 20 32 C 19.449219 32 19 32.449219 19 33 L 19 35 C 19 35.550781 19.449219 36 20 36 C 20.550781 36 21 35.550781 21 35 L 21 33 C 21 32.449219 20.550781 32 20 32 Z "></path>
    <path style=" fill:#8D6C9F;" d="M 25 32 C 24.449219 32 24 32.449219 24 33 L 24 35 C 24 35.550781 24.449219 36 25 36 C 25.550781 36 26 35.550781 26 35 L 26 33 C 26 32.449219 25.550781 32 25 32 Z "></path>
    <path style=" fill:#8D6C9F;" d="M 29 33 L 29 35 C 29 35.550781 29.449219 36 30 36 C 30.550781 36 31 35.550781 31 35 L 31 33 C 31 32.449219 30.550781 32 30 32 C 29.449219 32 29 32.449219 29 33 Z "></path>
    <path style=" fill:#8D6C9F;" d="M 35 36 C 35.550781 36 36 35.550781 36 35 L 36 33 C 36 32.449219 35.550781 32 35 32 C 34.449219 32 34 32.449219 34 33 L 34 35 C 34 35.550781 34.449219 36 35 36 Z "></path>
    <path style=" fill:#8D6C9F;" d="M 40 36 C 40.550781 36 41 35.550781 41 35 L 41 33 C 41 32.449219 40.550781 32 40 32 C 39.449219 32 39 32.449219 39 33 L 39 35 C 39 35.550781 39.449219 36 40 36 Z "></path>
    <path style=" fill:#8D6C9F;" d="M 45 36 C 45.550781 36 46 35.550781 46 35 L 46 33 C 46 32.449219 45.550781 32 45 32 C 44.449219 32 44 32.449219 44 33 L 44 35 C 44 35.550781 44.449219 36 45 36 Z "></path>
    <path style=" fill:#8D6C9F;" d="M 50 36 C 50.550781 36 51 35.550781 51 35 L 51 33 C 51 32.449219 50.550781 32 50 32 C 49.449219 32 49 32.449219 49 33 L 49 35 C 49 35.550781 49.449219 36 50 36 Z "></path>
    <path style=" fill:#8D6C9F;" d="M 55 36 C 55.550781 36 56 35.550781 56 35 L 56 33 C 56 32.449219 55.550781 32 55 32 C 54.449219 32 54 32.449219 54 33 L 54 35 C 54 35.550781 54.449219 36 55 36 Z "></path>
    <path style=" fill:#8D6C9F;" d="M 60 36 C 60.550781 36 61 35.550781 61 35 L 61 33 C 61 32.449219 60.550781 32 60 32 C 59.449219 32 59 32.449219 59 33 L 59 35 C 59 35.550781 59.449219 36 60 36 Z "></path>
  </g>
</svg>